# xmcd
# 
# Track frame offsets:
#     150
#     14528
#     27534
#     45519
#     64222
#     83345
#     101689
#     113379
#     130470
#     147519
#     174514
#     200277
#     217462
# 
# Disc length: 3059
# 
# Revision: 7
# Processed by: cddbd v1.5.2PL0 Copyright (c) Steve Scherf et al.
# Submitted via: fre:ac v1.0.31
# 
DISCID=ba0bf10d
DTITLE=Elvis Costello - Secret, Profane and Sugarcane
DYEAR=2009
DGENRE=Rock/Pop
TTITLE0=Down Among the Wines and Spirits
TTITLE1=Complicated Shadows
TTITLE2=I Felt the Chill
TTITLE3=My All Time Doll
TTITLE4=Hidden Shame
TTITLE5=She Handed Me a Mirror
TTITLE6=I Dreamed of My Old Lover
TTITLE7=How Deep Is the Red?
TTITLE8=She Was No Good
TTITLE9=Sulphur to Sugarcane
TTITLE10=Red Cotton
TTITLE11=The Crooked Line
TTITLE12=Changing Partners
EXTD=
EXTT0=
EXTT1=
EXTT2=
EXTT3=
EXTT4=
EXTT5=
EXTT6=
EXTT7=
EXTT8=
EXTT9=
EXTT10=
EXTT11=
EXTT12=
PLAYORDER=
